<?xml version="1.0" encoding="UTF-8"?>
<!DOCTYPE svg PUBLIC "-//W3C//DTD SVG 1.1//EN" "http://www.w3.org/Graphics/SVG/1.1/DTD/svg11.dtd">
<!-- Creator: CorelDRAW 2020 (64 Bit) -->
<svg xmlns="http://www.w3.org/2000/svg" xml:space="preserve" width="25px" height="25px" version="1.1" style="shape-rendering:geometricPrecision; text-rendering:geometricPrecision; image-rendering:optimizeQuality; fill-rule:evenodd; clip-rule:evenodd"
viewBox="0 0 25 25"
 xmlns:xlink="http://www.w3.org/1999/xlink"
 xmlns:xodm="http://www.corel.com/coreldraw/odm/2003">
 <defs>
  <style type="text/css">
   <![CDATA[
    .fil0 {fill:#727376}
    .fil1 {fill:#D2D3D5}
   ]]>
  </style>
 </defs>
 <g id="Camada_x0020_1">
  <metadata id="CorelCorpID_0Corel-Layer"/>
  <g id="_3193265759888">
   <path class="fil0" d="M12.5 2.5c5.52,0 10,4.47 10,10 0,5.52 -4.48,10 -10,10 -5.52,0 -10,-4.48 -10,-10 0,-5.52 4.47,-10 10,-10z"/>
   <path class="fil1" d="M12.5 2.9c5.3,0 9.6,4.3 9.6,9.6 0,5.3 -4.3,9.6 -9.6,9.6 -5.3,0 -9.6,-4.3 -9.6,-9.6 0,-5.3 4.3,-9.6 9.6,-9.6z"/>
   <path class="fil0" d="M12.5 14.42c2.12,0 3.84,1.72 3.84,3.84 0,2.12 -1.72,3.84 -3.84,3.84 -2.12,0 -3.84,-1.72 -3.84,-3.84 0,-2.12 1.72,-3.84 3.84,-3.84z"/>
  </g>
 </g>
</svg>
